# xmcd CD database file
#
# Track frame offsets:
#	150
#	22515
#	48700
#	71082
#
# Disc length: 1296 seconds
#
# Revision: 0
# Processed by: cddbd v1.5.1PL2 Copyright (c) Steve Scherf et al.
# Submitted via: CDex 1.51
#
DISCID=2c050e04
DTITLE=七月子 - ONE MORE YOU〜小川コーヒー（株）CMタイアップ曲〜
DYEAR=1900
DGENRE=JPop
TTITLE0=ONE MORE YOU
TTITLE1=ＳＡＹ
TTITLE2=ONE MORE YOU（オリジナルカラオケ）
TTITLE3=ＳＡＹ
EXTD=
EXTT0=
EXTT1=
EXTT2=
EXTT3=
PLAYORDER=
